<svg xmlns="http://www.w3.org/2000/svg" width="40" height="40" viewBox="0 0 40 40" fill="none">
  <path d="M16.8758 21.0415H12.6349V30.5145L6.32372 21.0415H2.08281L0 23.1243V37.9173L2.08281 40.0001H6.32372V30.5145L12.6349 40.0001H16.8758L18.9586 37.9173V23.1243L16.8758 21.0415Z" fill="#F2F2F2"></path>
  <path d="M33.6888 32.9863V36.1105H27.3651V35.0691H21.0414V37.9173L23.1368 40.0001H37.9172L40 37.9173V30.1507L37.9172 28.0553H27.3651V24.9311H33.6888V25.9725H40V23.1243L37.9172 21.0415H23.1368L21.0414 23.1243V30.8909L23.1368 32.9738L33.6888 32.9863Z" fill="#F2F2F2"></path>
  <path d="M0 16.8632L2.08281 18.9586H16.8758L18.9586 16.8632V14.0276H12.6349V15.069H6.32372V0H2.08281L0 2.08281V16.8632Z" fill="#F2F2F2"></path>
  <path d="M27.3651 3.87704H33.6888V4.91844H40V2.08281L37.9172 0H23.1368L21.0414 2.08281V16.8632L23.1368 18.9586H37.9172L40 16.8632V14.0276H33.6888V15.069H27.3651V11.9322H33.6888V7.0138H27.3651V3.87704Z" fill="#F2F2F2"></path>
</svg>